ffmpeg started on 2025-06-20 at 16:55:54
Report written to "D:\Convert\FFMetrics\reports\psnr_report-6.txt"
Log level: 32
Command line:
ffmpeg -hide_banner -nostdin -i "G:\\\xc0\xed\xe8\xec\xe5\\[\xd2\xee\xef]\\\xc2\xee\xeb\xf7\xe8\xf6\xe0 \xe8 \xef\xf0\xff\xed\xee\xf1\xf2\xe8\\\xd2\xee\xf0\xe3\xee\xe2\xe5\xf6 \xe2\xf1\xf2\xf0\xe5\xf7\xe0\xe5\xf2 \xec\xf3\xe4\xf0\xf3\xfe \xe2\xee\xeb\xf7\xe8\xf6\xf3\\DC_Ookami_to_Koushinryou_Merchant_Meets_the_Wise_Wolf_08_Telegram_HEVC.mkv" -i "G:\\\xc0\xed\xe8\xec\xe5\\[\xd2\xee\xef]\\\xc2\xee\xeb\xf7\xe8\xf6\xe0 \xe8 \xef\xf0\xff\xed\xee\xf1\xf2\xe8\\\xd2\xee\xf0\xe3\xee\xe2\xe5\xf6 \xe2\xf1\xf2\xf0\xe5\xf7\xe0\xe5\xf2 \xec\xf3\xe4\xf0\xf3\xfe \xe2\xee\xeb\xf7\xe8\xf6\xf3\\DC_Ookami_to_Koushinryou_Merchant_Meets_the_Wise_Wolf_08_Telegram.mp4" -lavfi "[0:v]settb=AVTB,setpts=PTS-STARTPTS,format=pix_fmts=yuv420p10,fps=24000/1001,scale=1920:1080:flags=bicubic[main];[1:v]settb=AVTB,setpts=PTS-STARTPTS,format=pix_fmts=yuv420p,fps=24000/1001,scale=1920:1080:flags=bicubic[ref];[main][ref]psnr=eof_action=endall:stats_file='D\\:/Convert/FFMetrics/logs/psnr_logfile-6.txt'" -f null -
Input #0, matroska,webm, from 'G:\Аниме\[Топ]\Волчица и пряности\Торговец встречает мудрую волчицу\DC_Ookami_to_Koushinryou_Merchant_Meets_the_Wise_Wolf_08_Telegram_HEVC.mkv':
  Metadata:
    COMPATIBLE_BRANDS: isomiso2avc1mp41
    MAJOR_BRAND     : isom
    MINOR_VERSION   : 512
    ENCODER         : Lavf61.7.100
  Duration: 00:23:57.70, start: -0.021000, bitrate: 979 kb/s
  Stream #0:0: Video: hevc (Main 10), yuv420p10le(tv, bt709, progressive), 1920x1080 [SAR 1:1 DAR 16:9], 23.98 fps, 23.98 tbr, 1k tbn (default)
      Metadata:
        HANDLER_NAME    : VideoHandler
        VENDOR_ID       : [0][0][0][0]
        ENCODER         : Lavc61.19.100 libx265
        BPS             : 782782
        DURATION        : 00:23:56.601708333
        NUMBER_OF_FRAMES: 34444
        NUMBER_OF_BYTES : 140568293
        _STATISTICS_WRITING_APP: mkvpropedit v66.0.0 ('Josie') 64-bit
        _STATISTICS_WRITING_DATE_UTC: 2025-06-20 10:18:23
        _STATISTICS_TAGS: BPS DURATION NUMBER_OF_FRAMES NUMBER_OF_BYTES
  Stream #0:1: Audio: aac (LC), 48000 Hz, stereo, fltp (default)
      Metadata:
        HANDLER_NAME    : SoundHandler
        VENDOR_ID       : [0][0][0][0]
        ENCODER         : Lavc61.19.100 aac
        BPS             : 193212
        DURATION        : 00:23:57.696000000
        NUMBER_OF_FRAMES: 67393
        NUMBER_OF_BYTES : 34722638
        _STATISTICS_WRITING_APP: mkvpropedit v66.0.0 ('Josie') 64-bit
        _STATISTICS_WRITING_DATE_UTC: 2025-06-20 10:18:23
        _STATISTICS_TAGS: BPS DURATION NUMBER_OF_FRAMES NUMBER_OF_BYTES
Input #1, mov,mp4,m4a,3gp,3g2,mj2, from 'G:\Аниме\[Топ]\Волчица и пряности\Торговец встречает мудрую волчицу\DC_Ookami_to_Koushinryou_Merchant_Meets_the_Wise_Wolf_08_Telegram.mp4':
  Metadata:
    major_brand     : isom
    minor_version   : 512
    compatible_brands: isomiso2avc1mp41
    encoder         : Lavf60.16.100
  Duration: 00:23:57.67, start: 0.000000, bitrate: 3691 kb/s
  Stream #1:0[0x1](und): Video: h264 (High) (avc1 / 0x31637661), yuv420p(tv, bt709, progressive), 1920x1080 [SAR 1:1 DAR 16:9], 3546 kb/s, 23.98 fps, 23.98 tbr, 24k tbn (default)
      Metadata:
        handler_name    : VideoHandler
        vendor_id       : [0][0][0][0]
        encoder         : Lavc60.31.102 h264_qsv
  Stream #1:1[0x2](und): Audio: aac (HE-AACv2) (mp4a / 0x6134706D), 48000 Hz, stereo, fltp, 144 kb/s (default)
      Metadata:
        handler_name    : SoundHandler
        vendor_id       : [0][0][0][0]
Stream mapping:
  Stream #0:0 (hevc) -> settb:default
  Stream #1:0 (h264) -> settb:default
  psnr:default -> Stream #0:0 (wrapped_avframe)
  Stream #0:1 -> #0:1 (aac (native) -> pcm_s16le (native))
Output #0, null, to 'pipe:':
  Metadata:
    COMPATIBLE_BRANDS: isomiso2avc1mp41
    MAJOR_BRAND     : isom
    MINOR_VERSION   : 512
    encoder         : Lavf61.7.100
  Stream #0:0: Video: wrapped_avframe, yuv420p10le(tv, bt709, progressive), 1920x1080 [SAR 1:1 DAR 16:9], q=2-31, 200 kb/s, 23.98 fps, 23.98 tbn
      Metadata:
        encoder         : Lavc61.19.100 wrapped_avframe
  Stream #0:1: Audio: pcm_s16le, 48000 Hz, stereo, s16, 1536 kb/s (default)
      Metadata:
        HANDLER_NAME    : SoundHandler
        VENDOR_ID       : [0][0][0][0]
        _STATISTICS_TAGS: BPS DURATION NUMBER_OF_FRAMES NUMBER_OF_BYTES
        BPS             : 193212
        DURATION        : 00:23:57.696000000
        NUMBER_OF_FRAMES: 67393
        NUMBER_OF_BYTES : 34722638
        _STATISTICS_WRITING_APP: mkvpropedit v66.0.0 ('Josie') 64-bit
        _STATISTICS_WRITING_DATE_UTC: 2025-06-20 10:18:23
        encoder         : Lavc61.19.100 pcm_s16le
frame=  190 fps=0.0 q=-0.0 size=N/A time=00:00:07.92 bitrate=N/A speed=15.5x    frame=  467 fps=450 q=-0.0 size=N/A time=00:00:19.47 bitrate=N/A speed=18.8x    frame=  730 fps=471 q=-0.0 size=N/A time=00:00:30.44 bitrate=N/A speed=19.7x    frame= 1001 fps=486 q=-0.0 size=N/A time=00:00:41.75 bitrate=N/A speed=20.3x    frame= 1216 fps=470 q=-0.0 size=N/A time=00:00:50.71 bitrate=N/A speed=19.6x    frame= 1422 fps=459 q=-0.0 size=N/A time=00:00:59.30 bitrate=N/A speed=19.2x    frame= 1582 fps=439 q=-0.0 size=N/A time=00:01:05.98 bitrate=N/A speed=18.3x    frame= 1792 fps=434 q=-0.0 size=N/A time=00:01:14.74 bitrate=N/A speed=18.1x    frame= 1992 fps=429 q=-0.0 size=N/A time=00:01:23.08 bitrate=N/A speed=17.9x    frame= 2215 fps=430 q=-0.0 size=N/A time=00:01:32.38 bitrate=N/A speed=17.9x    frame= 2442 fps=430 q=-0.0 size=N/A time=00:01:41.85 bitrate=N/A speed=17.9x    frame= 2665 fps=431 q=-0.0 size=N/A time=00:01:51.15 bitrate=N/A speed=  18x    frame= 2902 fps=433 q=-0.0 size=N/A time=00:02:01.03 bitrate=N/A speed=18.1x    frame= 3175 fps=440 q=-0.0 size=N/A time=00:02:12.42 bitrate=N/A speed=18.3x    frame= 3431 fps=444 q=-0.0 size=N/A time=00:02:23.10 bitrate=N/A speed=18.5x    frame= 3662 fps=444 q=-0.0 size=N/A time=00:02:32.73 bitrate=N/A speed=18.5x    frame= 3899 fps=445 q=-0.0 size=N/A time=00:02:42.62 bitrate=N/A speed=18.5x    frame= 4175 fps=449 q=-0.0 size=N/A time=00:02:54.13 bitrate=N/A speed=18.7x    frame= 4451 fps=454 q=-0.0 size=N/A time=00:03:05.64 bitrate=N/A speed=18.9x    frame= 4696 fps=455 q=-0.0 size=N/A time=00:03:15.86 bitrate=N/A speed=  19x    frame= 4968 fps=458 q=-0.0 size=N/A time=00:03:27.20 bitrate=N/A speed=19.1x    frame= 5253 fps=463 q=-0.0 size=N/A time=00:03:39.09 bitrate=N/A speed=19.3x    frame= 5483 fps=462 q=-0.0 size=N/A time=00:03:48.68 bitrate=N/A speed=19.3x    frame= 5749 fps=464 q=-0.0 size=N/A time=00:03:59.78 bitrate=N/A speed=19.4x    frame= 6012 fps=466 q=-0.0 size=N/A time=00:04:10.75 bitrate=N/A speed=19.4x    frame= 6287 fps=469 q=-0.0 size=N/A time=00:04:22.22 bitrate=N/A speed=19.6x    frame= 6564 fps=471 q=-0.0 size=N/A time=00:04:33.77 bitrate=N/A speed=19.7x    frame= 6824 fps=473 q=-0.0 size=N/A time=00:04:44.61 bitrate=N/A speed=19.7x    frame= 7094 fps=475 q=-0.0 size=N/A time=00:04:55.87 bitrate=N/A speed=19.8x    frame= 7370 fps=476 q=-0.0 size=N/A time=00:05:07.39 bitrate=N/A speed=19.9x    frame= 7625 fps=477 q=-0.0 size=N/A time=00:05:18.02 bitrate=N/A speed=19.9x    frame= 7891 fps=478 q=-0.0 size=N/A time=00:05:29.12 bitrate=N/A speed=19.9x    frame= 8158 fps=479 q=-0.0 size=N/A time=00:05:40.25 bitrate=N/A speed=  20x    frame= 8424 fps=480 q=-0.0 size=N/A time=00:05:51.35 bitrate=N/A speed=  20x    frame= 8666 fps=480 q=-0.0 size=N/A time=00:06:01.44 bitrate=N/A speed=  20x    frame= 8919 fps=481 q=-0.0 size=N/A time=00:06:11.99 bitrate=N/A speed=  20x    frame= 9187 fps=481 q=-0.0 size=N/A time=00:06:23.17 bitrate=N/A speed=20.1x    frame= 9440 fps=482 q=-0.0 size=N/A time=00:06:33.72 bitrate=N/A speed=20.1x    frame= 9718 fps=483 q=-0.0 size=N/A time=00:06:45.32 bitrate=N/A speed=20.1x    frame= 9989 fps=484 q=-0.0 size=N/A time=00:06:56.62 bitrate=N/A speed=20.2x    frame=10260 fps=485 q=-0.0 size=N/A time=00:07:07.92 bitrate=N/A speed=20.2x    frame=10503 fps=485 q=-0.0 size=N/A time=00:07:18.06 bitrate=N/A speed=20.2x    frame=10720 fps=483 q=-0.0 size=N/A time=00:07:27.11 bitrate=N/A speed=20.2x    frame=10950 fps=483 q=-0.0 size=N/A time=00:07:36.70 bitrate=N/A speed=20.1x    frame=11180 fps=482 q=-0.0 size=N/A time=00:07:46.29 bitrate=N/A speed=20.1x    frame=11418 fps=481 q=-0.0 size=N/A time=00:07:56.22 bitrate=N/A speed=20.1x    frame=11651 fps=481 q=-0.0 size=N/A time=00:08:05.94 bitrate=N/A speed=20.1x    frame=11900 fps=481 q=-0.0 size=N/A time=00:08:16.32 bitrate=N/A speed=  20x    frame=12132 fps=480 q=-0.0 size=N/A time=00:08:26.00 bitrate=N/A speed=  20x    frame=12367 fps=480 q=-0.0 size=N/A time=00:08:35.80 bitrate=N/A speed=  20x    frame=12586 fps=479 q=-0.0 size=N/A time=00:08:44.94 bitrate=N/A speed=  20x    frame=12808 fps=478 q=-0.0 size=N/A time=00:08:54.20 bitrate=N/A speed=19.9x    frame=13011 fps=476 q=-0.0 size=N/A time=00:09:02.66 bitrate=N/A speed=19.9x    frame=13259 fps=476 q=-0.0 size=N/A time=00:09:13.01 bitrate=N/A speed=19.9x    frame=13516 fps=477 q=-0.0 size=N/A time=00:09:23.72 bitrate=N/A speed=19.9x    frame=13795 fps=478 q=-0.0 size=N/A time=00:09:35.36 bitrate=N/A speed=19.9x    frame=14065 fps=478 q=-0.0 size=N/A time=00:09:46.62 bitrate=N/A speed=  20x    frame=14337 fps=479 q=-0.0 size=N/A time=00:09:57.97 bitrate=N/A speed=  20x    frame=14608 fps=480 q=-0.0 size=N/A time=00:10:09.27 bitrate=N/A speed=  20x    frame=14886 fps=481 q=-0.0 size=N/A time=00:10:20.87 bitrate=N/A speed=20.1x    frame=15154 fps=482 q=-0.0 size=N/A time=00:10:32.04 bitrate=N/A speed=20.1x    frame=15440 fps=483 q=-0.0 size=N/A time=00:10:43.97 bitrate=N/A speed=20.1x    frame=15725 fps=484 q=-0.0 size=N/A time=00:10:55.86 bitrate=N/A speed=20.2x    frame=15962 fps=484 q=-0.0 size=N/A time=00:11:05.74 bitrate=N/A speed=20.2x    frame=16258 fps=485 q=-0.0 size=N/A time=00:11:18.09 bitrate=N/A speed=20.2x    frame=16505 fps=485 q=-0.0 size=N/A time=00:11:28.39 bitrate=N/A speed=20.2x    frame=16738 fps=485 q=-0.0 size=N/A time=00:11:38.11 bitrate=N/A speed=20.2x    frame=17015 fps=485 q=-0.0 size=N/A time=00:11:49.66 bitrate=N/A speed=20.2x    frame=17257 fps=485 q=-0.0 size=N/A time=00:11:59.76 bitrate=N/A speed=20.2x    frame=17516 fps=485 q=-0.0 size=N/A time=00:12:10.56 bitrate=N/A speed=20.2x    frame=17793 fps=486 q=-0.0 size=N/A time=00:12:22.11 bitrate=N/A speed=20.3x    frame=18053 fps=486 q=-0.0 size=N/A time=00:12:32.96 bitrate=N/A speed=20.3x    frame=18292 fps=486 q=-0.0 size=N/A time=00:12:42.92 bitrate=N/A speed=20.3x    frame=18562 fps=486 q=-0.0 size=N/A time=00:12:54.19 bitrate=N/A speed=20.3x    frame=18811 fps=486 q=-0.0 size=N/A time=00:13:04.57 bitrate=N/A speed=20.3x    frame=19079 fps=487 q=-0.0 size=N/A time=00:13:15.75 bitrate=N/A speed=20.3x    frame=19343 fps=487 q=-0.0 size=N/A time=00:13:26.76 bitrate=N/A speed=20.3x    frame=19607 fps=488 q=-0.0 size=N/A time=00:13:37.77 bitrate=N/A speed=20.3x    frame=19876 fps=488 q=-0.0 size=N/A time=00:13:48.99 bitrate=N/A speed=20.3x    frame=20118 fps=488 q=-0.0 size=N/A time=00:13:59.08 bitrate=N/A speed=20.3x    frame=20378 fps=488 q=-0.0 size=N/A time=00:14:09.93 bitrate=N/A speed=20.3x    frame=20603 fps=487 q=-0.0 size=N/A time=00:14:19.31 bitrate=N/A speed=20.3x    frame=20832 fps=487 q=-0.0 size=N/A time=00:14:28.86 bitrate=N/A speed=20.3x    frame=21109 fps=487 q=-0.0 size=N/A time=00:14:40.42 bitrate=N/A speed=20.3x    frame=21378 fps=488 q=-0.0 size=N/A time=00:14:51.64 bitrate=N/A speed=20.3x    frame=21640 fps=488 q=-0.0 size=N/A time=00:15:02.56 bitrate=N/A speed=20.3x    frame=21924 fps=489 q=-0.0 size=N/A time=00:15:14.41 bitrate=N/A speed=20.4x    frame=22201 fps=489 q=-0.0 size=N/A time=00:15:25.96 bitrate=N/A speed=20.4x    frame=22408 fps=488 q=-0.0 size=N/A time=00:15:34.60 bitrate=N/A speed=20.4x    frame=22596 fps=487 q=-0.0 size=N/A time=00:15:42.44 bitrate=N/A speed=20.3x    frame=22838 fps=487 q=-0.0 size=N/A time=00:15:52.53 bitrate=N/A speed=20.3x    frame=23063 fps=486 q=-0.0 size=N/A time=00:16:01.91 bitrate=N/A speed=20.3x    frame=23274 fps=485 q=-0.0 size=N/A time=00:16:10.71 bitrate=N/A speed=20.2x    frame=23493 fps=484 q=-0.0 size=N/A time=00:16:19.85 bitrate=N/A speed=20.2x    frame=23754 fps=485 q=-0.0 size=N/A time=00:16:30.73 bitrate=N/A speed=20.2x    frame=24021 fps=485 q=-0.0 size=N/A time=00:16:41.87 bitrate=N/A speed=20.2x    frame=24292 fps=486 q=-0.0 size=N/A time=00:16:53.17 bitrate=N/A speed=20.3x    frame=24520 fps=485 q=-0.0 size=N/A time=00:17:02.68 bitrate=N/A speed=20.2x    frame=24780 fps=485 q=-0.0 size=N/A time=00:17:13.53 bitrate=N/A speed=20.2x    frame=25004 fps=485 q=-0.0 size=N/A time=00:17:22.87 bitrate=N/A speed=20.2x    frame=25246 fps=485 q=-0.0 size=N/A time=00:17:32.96 bitrate=N/A speed=20.2x    frame=25471 fps=484 q=-0.0 size=N/A time=00:17:42.35 bitrate=N/A speed=20.2x    frame=25685 fps=483 q=-0.0 size=N/A time=00:17:51.27 bitrate=N/A speed=20.2x    frame=25947 fps=484 q=-0.0 size=N/A time=00:18:02.20 bitrate=N/A speed=20.2x    frame=26191 fps=484 q=-0.0 size=N/A time=00:18:12.38 bitrate=N/A speed=20.2x    frame=26461 fps=484 q=-0.0 size=N/A time=00:18:23.64 bitrate=N/A speed=20.2x    frame=26658 fps=483 q=-0.0 size=N/A time=00:18:31.86 bitrate=N/A speed=20.1x    frame=26874 fps=482 q=-0.0 size=N/A time=00:18:40.86 bitrate=N/A speed=20.1x    frame=27118 fps=482 q=-0.0 size=N/A time=00:18:51.04 bitrate=N/A speed=20.1x    frame=27351 fps=482 q=-0.0 size=N/A time=00:19:00.76 bitrate=N/A speed=20.1x    frame=27565 fps=481 q=-0.0 size=N/A time=00:19:09.69 bitrate=N/A speed=20.1x    frame=27770 fps=481 q=-0.0 size=N/A time=00:19:18.24 bitrate=N/A speed=  20x    frame=27968 fps=480 q=-0.0 size=N/A time=00:19:26.49 bitrate=N/A speed=  20x    frame=28202 fps=480 q=-0.0 size=N/A time=00:19:36.25 bitrate=N/A speed=  20x    frame=28417 fps=479 q=-0.0 size=N/A time=00:19:45.22 bitrate=N/A speed=  20x    frame=28650 fps=479 q=-0.0 size=N/A time=00:19:54.94 bitrate=N/A speed=  20x    frame=28883 fps=479 q=-0.0 size=N/A time=00:20:04.66 bitrate=N/A speed=  20x    frame=29167 fps=479 q=-0.0 size=N/A time=00:20:16.50 bitrate=N/A speed=  20x    frame=29441 fps=480 q=-0.0 size=N/A time=00:20:27.97 bitrate=N/A speed=  20x    frame=29710 fps=480 q=-0.0 size=N/A time=00:20:39.15 bitrate=N/A speed=  20x    frame=29931 fps=480 q=-0.0 size=N/A time=00:20:48.37 bitrate=N/A speed=  20x    frame=30203 fps=480 q=-0.0 size=N/A time=00:20:59.71 bitrate=N/A speed=  20x    frame=30482 fps=480 q=-0.0 size=N/A time=00:21:11.35 bitrate=N/A speed=  20x    frame=30758 fps=481 q=-0.0 size=N/A time=00:21:22.86 bitrate=N/A speed=20.1x    frame=31030 fps=481 q=-0.0 size=N/A time=00:21:34.20 bitrate=N/A speed=20.1x    frame=31290 fps=481 q=-0.0 size=N/A time=00:21:45.05 bitrate=N/A speed=20.1x    frame=31511 fps=481 q=-0.0 size=N/A time=00:21:54.31 bitrate=N/A speed=20.1x    frame=31790 fps=482 q=-0.0 size=N/A time=00:22:05.90 bitrate=N/A speed=20.1x    frame=32062 fps=482 q=-0.0 size=N/A time=00:22:17.25 bitrate=N/A speed=20.1x    frame=32232 fps=481 q=-0.0 size=N/A time=00:22:24.34 bitrate=N/A speed=  20x    frame=32378 fps=479 q=-0.0 size=N/A time=00:22:30.43 bitrate=N/A speed=  20x    frame=32568 fps=478 q=-0.0 size=N/A time=00:22:38.35 bitrate=N/A speed=  20x    frame=32824 fps=479 q=-0.0 size=N/A time=00:22:49.03 bitrate=N/A speed=  20x    frame=33088 fps=479 q=-0.0 size=N/A time=00:23:00.04 bitrate=N/A speed=  20x    frame=33322 fps=479 q=-0.0 size=N/A time=00:23:09.80 bitrate=N/A speed=  20x    frame=33540 fps=478 q=-0.0 size=N/A time=00:23:18.89 bitrate=N/A speed=19.9x    frame=33792 fps=478 q=-0.0 size=N/A time=00:23:29.40 bitrate=N/A speed=19.9x    frame=34014 fps=478 q=-0.0 size=N/A time=00:23:38.66 bitrate=N/A speed=19.9x    frame=34194 fps=477 q=-0.0 size=N/A time=00:23:46.17 bitrate=N/A speed=19.9x    [Parsed_psnr_10 @ 00000238e2331840] PSNR y:48.354403 u:49.907824 v:50.936931 average:48.933456 min:40.743492 max:inf
[out#0/null @ 00000238e1ae5480] video:14800KiB audio:269572KiB subtitle:0KiB other streams:0KiB global headers:0KiB muxing overhead: unknown
frame=34444 fps=477 q=-0.0 Lsize=N/A time=00:23:56.60 bitrate=N/A speed=19.9x    
